<?xml version="1.0" encoding="UTF-8"?>
<svg xmlns="http://www.w3.org/2000/svg" xmlns:xlink="http://www.w3.org/1999/xlink" width="841.89pt" height="595.28pt" viewBox="0 0 841.89 595.28" version="1.1">
<defs>
<clipPath id="clip1">
  <path d="M 181 235 L 270 235 L 270 365 L 181 365 Z M 181 235 "/>
</clipPath>
<clipPath id="clip2">
  <path d="M 181.179688 279.722656 L 181.179688 364.003906 L 206.640625 319.5625 C 212.253906 322.171875 218.511719 323.640625 225.105469 323.640625 C 249.339844 323.640625 269.015625 303.972656 269.015625 279.722656 C 269.015625 255.476563 249.339844 235.8125 225.105469 235.8125 C 200.847656 235.8125 181.179688 255.476563 181.179688 279.722656 M 204.519531 279.953125 C 204.519531 268.789063 213.578125 259.730469 224.730469 259.730469 C 235.898438 259.730469 244.957031 268.789063 244.957031 279.953125 C 244.957031 291.117188 235.898438 300.171875 224.730469 300.171875 C 213.578125 300.171875 204.519531 291.117188 204.519531 279.953125 "/>
</clipPath>
</defs>
<g id="surface1">
<path style=" stroke:none;fill-rule:nonzero;fill:rgb(95.243835%,48.222351%,16.020203%);fill-opacity:1;" d="M 244.957031 279.953125 C 244.957031 291.125 235.902344 300.167969 224.730469 300.167969 C 213.578125 300.167969 204.515625 291.125 204.515625 279.953125 C 204.515625 268.789063 213.578125 259.734375 224.730469 259.734375 C 235.902344 259.734375 244.957031 268.789063 244.957031 279.953125 M 269.015625 279.722656 C 269.015625 255.480469 249.339844 235.808594 225.109375 235.808594 C 200.847656 235.808594 181.179688 255.480469 181.179688 279.722656 L 181.179688 364 L 206.640625 319.570313 C 212.253906 322.171875 218.511719 323.640625 225.109375 323.640625 C 249.339844 323.640625 269.015625 303.972656 269.015625 279.722656 "/>
<g clip-path="url(#clip1)" clip-rule="nonzero">
<g clip-path="url(#clip2)" clip-rule="nonzero">
<path style=" stroke:none;fill-rule:nonzero;fill:rgb(15.640259%,25.686646%,62.101746%);fill-opacity:1;" d="M 178.480469 375.101563 L 252.214844 232.664063 L 273.105469 239.453125 L 273.105469 297.246094 C 273.105469 300.085938 263.015625 345.042969 256.683594 350.042969 C 250.34375 355.03125 208.25 374.753906 206.382813 374.753906 C 204.507813 374.753906 178.480469 375.101563 178.480469 375.101563 "/>
</g>
</g>
<path style=" stroke:none;fill-rule:nonzero;fill:rgb(15.640259%,25.686646%,62.101746%);fill-opacity:1;" d="M 657.539063 279.859375 C 657.539063 255.660156 637.847656 235.964844 613.648438 235.964844 C 589.4375 235.964844 569.75 255.660156 569.75 279.859375 C 569.75 304.058594 589.4375 323.765625 613.648438 323.765625 C 637.847656 323.765625 657.539063 304.058594 657.539063 279.859375 M 634.007813 279.859375 C 634.007813 291.089844 624.875 300.210938 613.648438 300.210938 C 602.425781 300.210938 593.289063 291.089844 593.289063 279.859375 C 593.289063 268.632813 602.425781 259.5 613.648438 259.5 C 624.875 259.5 634.007813 268.632813 634.007813 279.859375 M 442.085938 325.355469 L 465.292969 325.355469 L 465.292969 279.710938 C 465.292969 255.539063 445.667969 235.867188 421.496094 235.867188 L 421.488281 235.867188 C 397.304688 235.867188 377.632813 255.539063 377.632813 279.710938 L 377.632813 325.355469 L 400.75 325.355469 L 400.75 278.960938 C 401.074219 267.878906 410.183594 258.980469 421.34375 258.980469 C 432.5 258.980469 441.753906 267.878906 442.085938 278.960938 Z M 442.085938 325.355469 "/>
<path style=" stroke:none;fill-rule:nonzero;fill:rgb(15.640259%,25.686646%,62.101746%);fill-opacity:1;" d="M 502.386719 324.496094 L 502.492188 324.5625 C 502.492188 324.542969 502.496094 324.523438 502.496094 324.496094 Z M 538.097656 279.714844 C 538.097656 290.941406 528.976563 300.0625 517.75 300.0625 C 506.519531 300.0625 497.382813 290.941406 497.382813 279.714844 C 497.382813 268.484375 506.519531 259.351563 517.75 259.351563 C 528.976563 259.351563 538.097656 268.484375 538.097656 279.714844 M 561.667969 322.777344 C 561.667969 322.644531 561.648438 279.980469 561.648438 279.714844 C 561.648438 255.511719 541.957031 235.8125 517.75 235.8125 C 493.535156 235.8125 473.855469 255.511719 473.855469 279.714844 C 473.855469 303.914063 493.535156 323.605469 517.75 323.605469 C 525.882813 323.605469 533.472656 321.34375 540.023438 317.472656 C 540.023438 317.472656 539.984375 322.636719 539.984375 322.777344 C 539.984375 333.113281 531.566406 341.519531 521.230469 341.519531 C 515.628906 341.519531 510.613281 339.046875 507.171875 335.144531 L 482.9375 335.144531 C 488.128906 351.410156 503.242188 363.210938 521.230469 363.210938 C 543.527344 363.210938 561.667969 345.074219 561.667969 322.777344 "/>
<path style=" stroke:none;fill-rule:nonzero;fill:rgb(15.640259%,25.686646%,62.101746%);fill-opacity:1;" d="M 342.289063 317.734375 L 364.371094 325.101563 C 364.371094 325.101563 364.367188 279.894531 364.367188 279.714844 C 364.367188 255.507813 344.667969 235.804688 320.46875 235.804688 C 296.265625 235.804688 276.570313 255.507813 276.570313 279.714844 C 276.570313 303.910156 296.265625 323.601563 320.46875 323.601563 C 328.414063 323.601563 335.847656 321.457031 342.289063 317.734375 M 340.824219 279.714844 C 340.824219 290.9375 331.691406 300.058594 320.46875 300.058594 C 309.238281 300.058594 300.113281 290.9375 300.113281 279.714844 C 300.113281 268.476563 309.238281 259.351563 320.46875 259.351563 C 331.691406 259.351563 340.824219 268.476563 340.824219 279.714844 "/>
</g>
</svg>
