<svg xmlns="http://www.w3.org/2000/svg" width="417.049" height="146.938" viewBox="0 0 417.049 146.938">
  <g id="Tiba_Logo" data-name="Tiba Logo" transform="translate(0)">
    <g id="Group_4236" data-name="Group 4236" transform="translate(0 0)">
      <g id="Group_2447" data-name="Group 2447">
        <path id="Path_2742" data-name="Path 2742" d="M1419.109,512.839c-.692.109-1.439.164-2.13.321-6.566.856-13.133,2.24-19.645,3.526-7.318,1.281-14.418,3.308-21.623,5.177-14.2,4.163-28.4,8.97-41.371,16.974-3.2,1.973-6.245,4.327-9.394,6.512-2.78,2.67-5.875,4.964-8.277,8.168a43.551,43.551,0,0,0-6.512,10.038,32.083,32.083,0,0,0-2.027,5.869,23.442,23.442,0,0,0-.588,6.354v.213a29.669,29.669,0,0,0,1.6,9.394,32.775,32.775,0,0,0,3.738,7.634,33.8,33.8,0,0,0,2.349,3.15,52.2,52.2,0,0,0,9.764,9.346c9.133,6.833,19.219,11.476,29.469,15.372a249.933,249.933,0,0,0,31.285,9.34c10.352,2.4,20.549,4.381,31.229,5.82v-13.4c-9.449-.9-19.22-2.349-28.777-4.109a243.57,243.57,0,0,1-30.265-7.58c-9.771-3.2-19.378-7.21-27.546-12.865-5.765-3.842-10.674-8.806-13.241-14.571a21.186,21.186,0,0,1-1.864-7.9l-.054-.534a3.66,3.66,0,0,1-.055-.8,19.6,19.6,0,0,1,1.706-7.9,24.644,24.644,0,0,1,2.191-4.43,21.494,21.494,0,0,1,2.883-4.163c1.869-2.883,4.7-5.128,7.1-7.635,2.774-2.136,5.5-4.485,8.435-6.457,11.852-8.065,25.568-13.454,39.4-18.151,6.937-2.136,13.878-4.485,21.083-6.033,6.3-1.547,12.6-3.15,19.007-4.272.795-.213,1.651-.322,2.452-.479,14.413-3.046,29.039-4.806,43.615-6.888C1448.366,509.319,1433.686,510.436,1419.109,512.839Z" transform="translate(-1307.504 -507.875)" fill="#2bb9ea"/>
        <path id="Path_2743" data-name="Path 2743" d="M1416.782,514.939c-4.806.692-9.613,1.493-14.364,2.452-6.349.964-12.6,2.615-18.9,4.114-6.3,1.335-12.435,3.466-18.631,5.335-12.222,4.218-24.5,9.078-35.387,16.658-5.286,3.951-10.463,8.059-14.522,13.612-.054.055-.109.158-.158.212a23.391,23.391,0,0,0-2.883,4.321,22.96,22.96,0,0,0-2.348,4.752c-.218.589-.485,1.232-.643,1.815a21.6,21.6,0,0,0-1.335,9.4l-.054-.267a31.5,31.5,0,0,0,5.286,16.92,49.563,49.563,0,0,0,12.064,12.441c9.073,6.828,19.165,11.53,29.36,15.427a251.126,251.126,0,0,0,31.284,9.395c10.353,2.452,20.549,4.376,31.229,5.82V624c-9.449-.91-19.219-2.3-28.777-4.059a240.931,240.931,0,0,1-30.265-7.526c-9.825-3.2-19.432-7.209-27.655-12.811-7.635-5.073-13.879-12.174-15.051-20.609-.109-.637-.164-1.335-.212-2.027v-.534a17.855,17.855,0,0,1,1.171-7.635,19.63,19.63,0,0,1,.959-2.452c.266-.485.533-1.019.8-1.5a18,18,0,0,1,2.245-3.788c3.253-5.073,7.95-9.182,12.7-13.132,9.929-7.634,21.623-12.92,33.421-17.672,5.978-2.136,11.955-4.534,18.151-6.136,6.136-1.765,12.277-3.684,18.576-4.964,4.588-1.177,9.285-2.136,13.934-3.046,7.9-1.6,15.906-2.986,23.857-4.376C1432.688,512.749,1424.732,513.708,1416.782,514.939Z" transform="translate(-1307.308 -490.701)" fill="#00508a"/>
      </g>
      <path id="Path_2744" data-name="Path 2744" d="M1365.987,533.037h-36.073a7.419,7.419,0,0,1,0-14.838h86.521a7.419,7.419,0,0,1,0,14.838h-35.611V575.6a7.419,7.419,0,0,1-14.837,0Z" transform="translate(-1240.803 -461.941)" fill="#454f63"/>
      <path id="Path_2745" data-name="Path 2745" d="M1342.118,525.6a7.418,7.418,0,0,1,14.837,0v49.8a7.528,7.528,0,0,1-2.178,5.471,7.4,7.4,0,0,1-12.659-5.193Z" transform="translate(-1153.499 -462.017)" fill="#454f63"/>
      <path id="Path_2746" data-name="Path 2746" d="M1345.862,533.02a14.389,14.389,0,0,1,1.16-5.754,15.06,15.06,0,0,1,7.93-7.929,14.442,14.442,0,0,1,5.749-1.155h71.684a13.838,13.838,0,0,1,5.75,1.2,16.057,16.057,0,0,1,4.729,3.2,14.358,14.358,0,0,1,3.2,4.73,14.687,14.687,0,0,1,1.161,5.8v10.2a7.445,7.445,0,0,1-7.417,7.422,7.444,7.444,0,0,1,7.417,7.416v10.108a14.506,14.506,0,0,1-4.36,10.435,16.059,16.059,0,0,1-4.729,3.2,13.838,13.838,0,0,1-5.75,1.2H1360.7a14.354,14.354,0,0,1-5.749-1.155,15.058,15.058,0,0,1-7.93-7.929,14.37,14.37,0,0,1-1.16-5.755Zm86.522.093H1360.7v10.2h71.684ZM1360.7,558.146v10.108h71.684V558.146Z" transform="translate(-1136.842 -462.017)" fill="#454f63"/>
      <g id="Group_2448" data-name="Group 2448" transform="translate(315.133 56.138)">
        <path id="Path_2747" data-name="Path 2747" d="M1465.77,571.17l-34.717-45.757a17.767,17.767,0,0,0-6.4-5.291,18.923,18.923,0,0,0-16.713,0,17.77,17.77,0,0,0-6.4,5.291l-34.717,45.757a7.554,7.554,0,0,0-1.482,4.55,7.03,7.03,0,0,0,2.224,5.292,7.657,7.657,0,0,0,8.681,1.351,7.619,7.619,0,0,0,2.55-2.1l3.439-4.583,2.13-2.839h.005l11.165-14.855h-.028l3.45-4.561.229-.305,15.22-20.107a2.362,2.362,0,0,1,3.775.005l15.145,20.1h0l16.849,22.293.965,1.275,2.653,3.488a7.025,7.025,0,0,0,4.916,2.9,7.818,7.818,0,0,0,6.659-2.376,7.082,7.082,0,0,0,1.885-4.981A7.624,7.624,0,0,0,1465.77,571.17Z" transform="translate(-1365.335 -518.177)" fill="#454f63"/>
        <circle id="Ellipse_460" data-name="Ellipse 460" cx="8.853" cy="8.853" r="8.853" transform="translate(42.105 38.581)" fill="#454f63"/>
      </g>
      <path id="Path_2759" data-name="Path 2759" d="M11.095,6.384A4.674,4.674,0,0,1,9.45,10.232,7.246,7.246,0,0,1,4.768,11.57H3.1v6H.481V1.537H5.1A6.984,6.984,0,0,1,9.6,2.765,4.409,4.409,0,0,1,11.095,6.384ZM3.1,9.366H4.494a4.99,4.99,0,0,0,2.961-.7A2.554,2.554,0,0,0,8.4,6.471,2.488,2.488,0,0,0,7.553,4.41a4.17,4.17,0,0,0-2.632-.68H3.1Zm28.012,8.2-1.6-4.452H23.383l-1.568,4.452H19.052l6-16.1H27.9l6,16.1Zm-2.292-6.711-1.5-4.364q-.164-.439-.455-1.382t-.4-1.382A24.575,24.575,0,0,1,25.6,6.68L24.15,10.857ZM45.507,8.993h1.82a4.156,4.156,0,0,0,2.654-.68A2.467,2.467,0,0,0,50.8,6.3a2.171,2.171,0,0,0-.888-1.952,4.87,4.87,0,0,0-2.675-.592H45.507Zm0,2.171v6.4H42.886V1.537h4.529A7.441,7.441,0,0,1,52.009,2.7,4.173,4.173,0,0,1,53.5,6.208a4.386,4.386,0,0,1-3.114,4.265l4.529,7.094H51.932l-3.838-6.4Zm30.841,6.4H73.31l-5.033-7.259L66.731,11.57v6H64.111V1.537h2.621V9.191q1.075-1.316,2.138-2.533L73.2,1.537h2.982q-4.2,4.934-6.02,7.029Zm8.988,0V1.537h2.621V17.568Zm27.08,0H109.2L101.319,4.794h-.088l.055.713q.153,2.039.154,3.728v8.333H99.06V1.537h3.18L110.1,14.246h.066q-.022-.252-.088-1.837t-.066-2.473v-8.4h2.4Zm17.661-8.7h5.9v8.048a17.072,17.072,0,0,1-2.78.669,19.677,19.677,0,0,1-2.878.2,7.23,7.23,0,0,1-5.614-2.155,8.676,8.676,0,0,1-1.974-6.08,8.107,8.107,0,0,1,2.226-6.058,8.367,8.367,0,0,1,6.129-2.188,11.937,11.937,0,0,1,4.759.965l-.921,2.182a9.261,9.261,0,0,0-3.9-.9,5.256,5.256,0,0,0-4.057,1.612,6.239,6.239,0,0,0-1.491,4.408,6.58,6.58,0,0,0,1.343,4.468,4.87,4.87,0,0,0,3.865,1.53,12.7,12.7,0,0,0,2.719-.318V11.121h-3.322Zm38.568,4.342A4.035,4.035,0,0,1,167.1,16.57a6.729,6.729,0,0,1-4.265,1.217,10.177,10.177,0,0,1-4.452-.844V14.465a12.1,12.1,0,0,0,2.33.811,9.879,9.879,0,0,0,2.3.3,3.654,3.654,0,0,0,2.3-.592,1.931,1.931,0,0,0,.74-1.59,1.993,1.993,0,0,0-.68-1.524,10.235,10.235,0,0,0-2.807-1.48,7.426,7.426,0,0,1-3.092-2.029,4.292,4.292,0,0,1-.9-2.741,3.839,3.839,0,0,1,1.425-3.158,5.913,5.913,0,0,1,3.827-1.151A11.244,11.244,0,0,1,168.4,2.316l-.833,2.138a10.014,10.014,0,0,0-3.816-.9,2.928,2.928,0,0,0-1.93.554,1.819,1.819,0,0,0-.658,1.464,2.061,2.061,0,0,0,.263,1.069,2.688,2.688,0,0,0,.866.839,14.653,14.653,0,0,0,2.171,1.042,11.88,11.88,0,0,1,2.588,1.371,4.031,4.031,0,0,1,1.206,1.436A4.321,4.321,0,0,1,168.644,13.215Zm14.5-4.364,3.794-7.314h2.851l-5.34,9.814v6.217h-2.632V11.439l-5.318-9.9h2.851Zm24.876,4.364a4.035,4.035,0,0,1-1.546,3.355,6.729,6.729,0,0,1-4.265,1.217,10.177,10.177,0,0,1-4.452-.844V14.465a12.1,12.1,0,0,0,2.33.811,9.88,9.88,0,0,0,2.3.3,3.654,3.654,0,0,0,2.3-.592,1.931,1.931,0,0,0,.74-1.59,1.992,1.992,0,0,0-.68-1.524,10.235,10.235,0,0,0-2.807-1.48,7.426,7.426,0,0,1-3.092-2.029,4.292,4.292,0,0,1-.9-2.741,3.839,3.839,0,0,1,1.425-3.158A5.913,5.913,0,0,1,203.2,1.307a11.244,11.244,0,0,1,4.583,1.009l-.833,2.138a10.014,10.014,0,0,0-3.816-.9,2.928,2.928,0,0,0-1.93.554,1.819,1.819,0,0,0-.658,1.464,2.061,2.061,0,0,0,.263,1.069,2.688,2.688,0,0,0,.866.839,14.652,14.652,0,0,0,2.171,1.042,11.879,11.879,0,0,1,2.588,1.371,4.031,4.031,0,0,1,1.206,1.436A4.321,4.321,0,0,1,208.024,13.215Zm15.512,4.353h-2.621V3.785H216.2V1.537h12.05V3.785h-4.715Zm23.111,0h-9.068V1.537h9.068V3.752H240.2V8.116h6.042v2.193H240.2v5.033h6.447Zm17.266,0L259.263,4.18h-.088q.186,2.982.186,5.592v7.8h-2.379V1.537h3.7l4.452,12.752h.066l4.583-12.752h3.706V17.568h-2.522V9.64q0-1.2.06-3.114t.1-2.325h-.088l-4.814,13.366Zm29.909-4.353a4.035,4.035,0,0,1-1.546,3.355,6.729,6.729,0,0,1-4.265,1.217,10.177,10.177,0,0,1-4.452-.844V14.465a12.1,12.1,0,0,0,2.33.811,9.879,9.879,0,0,0,2.3.3,3.654,3.654,0,0,0,2.3-.592,1.931,1.931,0,0,0,.74-1.59,1.993,1.993,0,0,0-.68-1.524,10.235,10.235,0,0,0-2.807-1.48,7.425,7.425,0,0,1-3.092-2.029,4.292,4.292,0,0,1-.9-2.741,3.839,3.839,0,0,1,1.425-3.158A5.913,5.913,0,0,1,289,1.307a11.244,11.244,0,0,1,4.583,1.009l-.833,2.138a10.014,10.014,0,0,0-3.816-.9,2.928,2.928,0,0,0-1.93.554,1.819,1.819,0,0,0-.658,1.464,2.061,2.061,0,0,0,.263,1.069,2.688,2.688,0,0,0,.866.839,14.652,14.652,0,0,0,2.171,1.042,11.881,11.881,0,0,1,2.588,1.371,4.031,4.031,0,0,1,1.206,1.436A4.321,4.321,0,0,1,293.821,13.215Z" transform="translate(120.218 129.15)" fill="#454f63"/>
    </g>
  </g>
</svg>
